<svg width="160" height="120" xmlns="http://www.w3.org/2000/svg" viewBox="0 0 160 120">
<style type="text/css">
	.st0{fill:#122447;}
	.st2{fill:#FFFFFF;}
</style>
<path class="st0" d="M147.1,119H12.9C6.4,119,1,113.6,1,107V13C1,6.4,6.4,1,12.9,1h134.1c6.6,0,11.9,5.4,11.9,12v94
	C159,113.6,153.6,119,147.1,119z"/>
<g class="st1">
	<path class="st2" d="M12.4,73.3V43c0-1.2,0.4-2.2,1.2-3c0.8-0.8,1.8-1.2,3-1.2s2.2,0.4,3,1.2c0.8,0.8,1.2,1.8,1.2,3v26.8h15.6
		c1.1,0,2,0.4,2.7,1.1c0.7,0.8,1.1,1.7,1.1,2.7s-0.4,2-1.1,2.7c-0.7,0.8-1.7,1.1-2.7,1.1H16.6c-1.2,0-2.2-0.4-3-1.2
		S12.4,74.5,12.4,73.3z"/>
	<path class="st2" d="M70.6,73.8c-3,3-6.8,4.4-11.4,4.4s-8.3-1.5-11.3-4.4c-3-2.9-4.5-6.5-4.5-10.8v-0.1c0-4.3,1.5-7.9,4.6-10.9
		c3-3,6.8-4.4,11.4-4.4s8.3,1.5,11.3,4.4c3,2.9,4.5,6.5,4.5,10.8v0.1C75.2,67.2,73.6,70.8,70.6,73.8z M59.3,71
		c2.3,0,4.1-0.8,5.5-2.3S67,65.3,67,63v-0.1c0-2.2-0.7-4.1-2.2-5.7c-1.4-1.6-3.3-2.4-5.6-2.4c-2.3,0-4.1,0.8-5.5,2.3
		s-2.1,3.4-2.1,5.7v0.1c0,2.2,0.7,4.1,2.2,5.7S57.1,71,59.3,71z"/>
	<path class="st2" d="M94.3,86.4c-3.8,0-7.3-0.7-10.7-2c-1.6-0.6-2.4-1.7-2.4-3.2c0-1,0.3-1.8,1-2.4c0.7-0.7,1.5-1,2.4-1
		c0.5,0,0.9,0.1,1.4,0.3c2.6,1.2,5.3,1.8,8.1,1.8c5.6,0,8.4-2.7,8.4-8v-1.4c-1.3,1.6-2.7,2.8-4.2,3.6c-1.5,0.8-3.3,1.2-5.4,1.2
		c-3.6,0-6.7-1.2-9.2-3.7c-2.5-2.5-3.8-5.8-3.8-10v-0.1c0-4.2,1.3-7.5,3.8-10c2.6-2.5,5.6-3.7,9.2-3.7c3.6,0,6.8,1.5,9.5,4.4v-0.1
		c0-1.1,0.4-2.1,1.2-2.9c0.8-0.8,1.8-1.2,2.9-1.2c1.1,0,2.1,0.4,2.9,1.2c0.8,0.8,1.2,1.8,1.2,3v18.9c0,5.2-1.2,9.1-3.7,11.6
		C104.3,85.1,100.1,86.4,94.3,86.4z M90.2,66.3c1.3,1.3,3,1.9,5.1,1.9s3.8-0.6,5.1-1.9c1.4-1.3,2.1-2.9,2.1-4.9v-0.1
		c0-2-0.7-3.6-2.1-4.9c-1.4-1.3-3.1-1.9-5.1-1.9s-3.7,0.6-5.1,1.9c-1.4,1.3-2,2.9-2,4.9v0.1C88.2,63.4,88.9,65.1,90.2,66.3z"/>
	<path class="st2" d="M143.9,73.8c-3,3-6.8,4.4-11.4,4.4s-8.3-1.5-11.3-4.4c-3-2.9-4.5-6.5-4.5-10.8v-0.1c0-4.3,1.5-7.9,4.6-10.9
		c3-3,6.8-4.4,11.4-4.4s8.3,1.5,11.3,4.4c3,2.9,4.5,6.5,4.5,10.8v0.1C148.5,67.2,146.9,70.8,143.9,73.8z M132.6,71
		c2.3,0,4.1-0.8,5.5-2.3s2.1-3.4,2.1-5.7v-0.1c0-2.2-0.7-4.1-2.2-5.7c-1.4-1.6-3.3-2.4-5.6-2.4c-2.3,0-4.1,0.8-5.5,2.3
		c-1.4,1.5-2.1,3.4-2.1,5.7v0.1c0,2.2,0.7,4.1,2.2,5.7C128.5,70.2,130.4,71,132.6,71z"/>
</g>
</svg>
